<svg width="159" height="72" viewBox="0 0 159 72" fill="none" xmlns="http://www.w3.org/2000/svg">
<g clip-path="url(#clip0_16_199)">
<path d="M5.25066 65.4288C5.20432 65.5064 5.14394 65.575 5.07255 65.631C5.00238 65.6773 4.91928 65.7004 4.83507 65.6972C4.73588 65.693 4.63916 65.6653 4.55305 65.6163L4.21538 65.4324C4.07694 65.3612 3.93301 65.3009 3.78494 65.2523C3.60641 65.1952 3.41958 65.1679 3.23204 65.1714C2.94712 65.1501 2.66397 65.231 2.43424 65.3994C2.34754 65.4753 2.27918 65.5696 2.23422 65.6753C2.18925 65.7809 2.16884 65.8952 2.17449 66.0098C2.17055 66.1608 2.2265 66.3073 2.33034 66.4179C2.45118 66.5346 2.59188 66.6292 2.74594 66.6974C2.93648 66.7811 3.13233 66.8523 3.33223 66.9107C3.55116 66.9769 3.77381 67.0504 4.00387 67.1277C4.2343 67.2091 4.45979 67.3036 4.67922 67.4108C4.8964 67.5164 5.0945 67.6568 5.26551 67.8263C5.44283 68.0003 5.58292 68.2079 5.6774 68.4367C5.79113 68.7118 5.84549 69.0074 5.83696 69.3046C5.83908 69.6655 5.77235 70.0236 5.64029 70.3599C5.51149 70.6815 5.31693 70.9732 5.06884 71.2167C4.80426 71.4702 4.4897 71.6667 4.14487 71.794C3.7446 71.9395 3.32066 72.0106 2.89437 72.0036C2.63248 72.0037 2.37132 71.9765 2.11512 71.9228C1.85172 71.8722 1.59341 71.7983 1.34329 71.7021C1.10113 71.6115 0.867657 71.4995 0.645679 71.3675C0.438766 71.2456 0.248041 71.0986 0.0779419 70.9299L0.638259 70.0474C0.682563 69.9791 0.74392 69.9234 0.816373 69.8856C0.89011 69.8448 0.973117 69.8233 1.05757 69.823C1.17913 69.8266 1.29732 69.8635 1.39895 69.9297L1.77002 70.165C1.92841 70.2579 2.09481 70.3367 2.26726 70.4004C2.48044 70.475 2.70541 70.5112 2.93147 70.507C3.21825 70.5241 3.50231 70.4437 3.7367 70.279C3.84091 70.1884 3.9216 70.0743 3.97198 69.9463C4.02235 69.8183 4.04092 69.6802 4.02613 69.5436C4.03465 69.3746 3.97756 69.2088 3.86657 69.0803C3.75219 68.9531 3.61177 68.8516 3.45468 68.7824C3.26625 68.6987 3.07145 68.6298 2.8721 68.5765C2.65317 68.5176 2.43053 68.4514 2.20047 68.3779C1.97031 68.3047 1.74584 68.215 1.52883 68.1095C1.31185 68.0038 1.11479 67.862 0.946247 67.6903C0.765101 67.5045 0.623735 67.2844 0.530648 67.0431C0.418123 66.737 0.365236 66.4126 0.374798 66.087C0.374012 65.7797 0.437171 65.4755 0.560333 65.1934C0.68528 64.8987 0.871088 64.6332 1.10581 64.4139C1.36706 64.1833 1.67068 64.0048 2.00009 63.888C2.38326 63.7467 2.78986 63.6781 3.19865 63.6858C3.44727 63.6842 3.69557 63.7039 3.94079 63.7446C4.17204 63.7813 4.39937 63.8391 4.61985 63.9174C4.82737 63.9918 5.02841 64.0828 5.22098 64.1896C5.40043 64.2945 5.56832 64.4177 5.72192 64.5573L5.25066 65.4288Z" fill="#fff"/>
<path d="M8.41962 66.1274V69.8047C8.4033 70.0426 8.47302 70.2786 8.61629 70.4702C8.68853 70.5501 8.77825 70.6125 8.8786 70.6526C8.97894 70.6928 9.08722 70.7096 9.19516 70.7019C9.38128 70.7045 9.56547 70.6642 9.73321 70.5842C9.91145 70.4989 10.0764 70.3887 10.223 70.257V66.1274H11.9708V71.9191H10.9058C10.8117 71.927 10.7178 71.9024 10.64 71.8494C10.5622 71.7965 10.5053 71.7184 10.4791 71.6286L10.3715 71.2939C10.2611 71.4001 10.1433 71.4984 10.0189 71.5881C9.90339 71.6754 9.77904 71.7505 9.64786 71.8124C9.50598 71.875 9.35802 71.923 9.20629 71.9558C9.03587 71.9941 8.86153 72.0126 8.68679 72.011C8.39606 72.0166 8.10751 71.9602 7.84075 71.8455C7.59241 71.7407 7.37156 71.5809 7.19509 71.3785C7.0252 71.1728 6.89898 70.9351 6.82402 70.6798C6.73364 70.3944 6.6898 70.0965 6.69414 69.7973V66.1274H8.41962Z" fill="#fff"/>
<path d="M17.4255 71.9118C17.329 71.9154 17.2336 71.8911 17.1509 71.8419C17.0764 71.7876 17.0228 71.7098 16.9987 71.6213L16.8614 71.18C16.747 71.3023 16.6229 71.4154 16.4904 71.5183C16.3625 71.6181 16.2244 71.7043 16.0785 71.7757C15.926 71.85 15.7653 71.9068 15.5998 71.9449C15.4169 71.984 15.2303 72.0037 15.0432 72.0037C14.7488 72.0049 14.4586 71.9355 14.1971 71.8014C13.9307 71.6622 13.7008 71.4632 13.5255 71.2204C13.3252 70.9379 13.1758 70.6232 13.0839 70.2901C12.9715 69.8817 12.9177 69.4595 12.9244 69.0362C12.921 68.6287 12.981 68.2231 13.1025 67.8337C13.2124 67.4813 13.3872 67.1521 13.6183 66.8629C13.8318 66.5963 14.1016 66.3792 14.4087 66.2268C14.7264 66.0734 15.0757 65.9953 15.4291 65.9988C15.6903 65.9916 15.9503 66.0366 16.1935 66.1312C16.3989 66.2164 16.5903 66.3317 16.7612 66.4731V63.5314H18.509V71.8934L17.4255 71.9118ZM15.6555 70.6725C15.7716 70.6744 15.8875 70.6621 16.0006 70.6358C16.1 70.6143 16.1961 70.5797 16.2863 70.5328C16.374 70.4871 16.4562 70.4315 16.5312 70.3673C16.6124 70.2934 16.6893 70.2148 16.7612 70.132V67.6756C16.6446 67.541 16.497 67.4364 16.3308 67.3704C16.177 67.3115 16.0134 67.2815 15.8484 67.2821C15.6946 67.2807 15.5425 67.3134 15.4031 67.3777C15.2536 67.4439 15.1252 67.5495 15.0321 67.683C14.9204 67.8482 14.8411 68.0328 14.7983 68.2272C14.7356 68.4922 14.7069 68.764 14.7129 69.0362C14.7087 69.2952 14.7311 69.5539 14.7797 69.8084C14.8131 69.9859 14.8771 70.1563 14.969 70.3122C15.038 70.4287 15.1382 70.5241 15.2584 70.588C15.3813 70.6492 15.518 70.6783 15.6555 70.6725Z" fill="#fff"/>
<path d="M23.8932 71.9118C23.766 71.9184 23.639 71.8958 23.5221 71.8456C23.4198 71.7809 23.3446 71.6816 23.3106 71.5661L23.1845 71.2499C23.0397 71.3712 22.8987 71.4778 22.7614 71.5734C22.6297 71.6652 22.4893 71.744 22.3421 71.8088C22.195 71.8753 22.0406 71.9247 21.882 71.9559C21.702 71.988 21.5194 72.004 21.3365 72.0037C21.0853 72.0069 20.8351 71.9722 20.5944 71.9007C20.3898 71.8385 20.2012 71.7331 20.0415 71.5918C19.8795 71.4567 19.7522 71.2853 19.6704 71.0917C19.5819 70.8721 19.5389 70.6369 19.5443 70.4004C19.5473 70.1802 19.602 69.9637 19.7038 69.7679C19.8296 69.5262 20.0178 69.322 20.2493 69.1759C20.5719 68.9707 20.9268 68.8203 21.2994 68.731C21.843 68.598 22.4021 68.5375 22.9618 68.5508V68.3007C22.9844 68.0382 22.9092 67.7766 22.7503 67.5653C22.6723 67.487 22.5783 67.4262 22.4746 67.3869C22.3709 67.3476 22.26 67.3307 22.1492 67.3373C21.9773 67.3325 21.8057 67.3548 21.6408 67.4035C21.5131 67.4434 21.389 67.4938 21.2697 67.5542C21.1658 67.6094 21.0657 67.6609 20.9692 67.705C20.859 67.7516 20.7401 67.7742 20.6204 67.7712C20.5115 67.7741 20.4042 67.7447 20.3124 67.6866C20.229 67.6312 20.1603 67.5568 20.112 67.4697L19.7966 66.9291C20.1398 66.6254 20.5393 66.3906 20.9729 66.2378C21.4179 66.0852 21.8861 66.0093 22.357 66.0135C22.6829 66.0079 23.0069 66.0654 23.3106 66.1826C23.5825 66.2863 23.8284 66.4472 24.0315 66.6541C24.2346 66.8611 24.3899 67.1092 24.4869 67.3814C24.5933 67.675 24.6461 67.9851 24.6428 68.297V71.9154L23.8932 71.9118ZM21.8857 70.8564C22.0889 70.8624 22.2907 70.8222 22.4757 70.7387C22.6688 70.6482 22.8435 70.5236 22.9915 70.371V69.5767C22.7017 69.5728 22.4122 69.5962 22.1269 69.6466C21.9416 69.6774 21.7616 69.7343 21.5926 69.8157C21.4808 69.8657 21.3856 69.946 21.318 70.0474C21.2693 70.1326 21.2437 70.2289 21.2438 70.3269C21.2349 70.4046 21.2451 70.4833 21.2735 70.5563C21.3019 70.6293 21.3477 70.6944 21.407 70.7461C21.5517 70.8333 21.7208 70.872 21.8894 70.8564H21.8857Z" fill="#fff"/>
<path d="M25.9378 71.9118V66.1275H27.0176C27.1145 66.1246 27.21 66.1502 27.2922 66.201C27.3697 66.2515 27.4253 66.3289 27.4481 66.418L27.5408 66.7306C27.638 66.6328 27.7409 66.5408 27.8488 66.4548C27.9538 66.3715 28.0669 66.2988 28.1865 66.2378C28.313 66.1746 28.4462 66.1253 28.5835 66.0907C28.7356 66.0559 28.8913 66.0386 29.0474 66.0393C29.3624 66.0259 29.6722 66.1221 29.9231 66.3114C30.1645 66.503 30.347 66.7578 30.45 67.0468C30.5473 66.8754 30.6727 66.7213 30.8211 66.5908C30.9568 66.4659 31.1107 66.3618 31.2775 66.2819C31.4427 66.203 31.6172 66.145 31.797 66.1091C31.9753 66.0728 32.1568 66.0543 32.3388 66.054C32.6422 66.0482 32.9442 66.0981 33.2293 66.201C33.4772 66.2934 33.7006 66.4405 33.8824 66.6313C34.0619 66.8254 34.1985 67.0546 34.2832 67.3042C34.3764 67.6043 34.4214 67.917 34.4168 68.2309V71.9081H32.669V68.2309C32.669 67.6315 32.4093 67.3336 31.8935 67.3336C31.7844 67.3304 31.6758 67.3493 31.5744 67.3891C31.4729 67.429 31.3807 67.4889 31.3035 67.5653C31.2212 67.6549 31.1581 67.76 31.1179 67.8744C31.0777 67.9888 31.0613 68.11 31.0697 68.2309V71.9081H29.322V68.2309C29.3471 67.9829 29.2769 67.7347 29.1253 67.5359C29.0473 67.4644 28.9554 67.4096 28.8552 67.3748C28.755 67.34 28.6486 67.326 28.5427 67.3336C28.3877 67.3322 28.2347 67.3688 28.0974 67.4403C27.9506 67.5148 27.8156 67.6102 27.6967 67.7234V71.9118H25.9378Z" fill="#fff"/>
<path d="M38.146 66.0318C38.5079 66.0273 38.8676 66.0884 39.2073 66.212C39.5182 66.3225 39.8007 66.4996 40.0348 66.7305C40.2737 66.967 40.4585 67.2517 40.5765 67.5652C40.7104 67.9177 40.7771 68.2918 40.7732 68.6684C40.7742 68.7753 40.768 68.8822 40.7546 68.9883C40.7472 69.0569 40.7257 69.1232 40.6916 69.1832C40.6633 69.2286 40.622 69.2645 40.5728 69.2862C40.5092 69.3058 40.4427 69.3145 40.3762 69.3119H37.0068C37.0215 69.7044 37.1798 70.0782 37.4521 70.3636C37.7078 70.5887 38.0419 70.7061 38.3835 70.6909C38.5605 70.6947 38.737 70.6712 38.9067 70.621C39.0344 70.5751 39.1584 70.5198 39.2778 70.4555C39.3928 70.3967 39.5004 70.3452 39.5932 70.2937C39.6876 70.2469 39.7919 70.223 39.8975 70.2239C39.9585 70.2213 40.0192 70.2338 40.0742 70.2601C40.1293 70.2864 40.1769 70.3257 40.2129 70.3746L40.7175 70.9924C40.5501 71.1875 40.3537 71.3561 40.135 71.4925C39.9343 71.6188 39.7187 71.7201 39.493 71.794C39.2788 71.8673 39.0574 71.9178 38.8325 71.9448C38.6247 71.9735 38.4152 71.9882 38.2054 71.9889C37.8118 71.9916 37.421 71.9243 37.0514 71.7904C36.7006 71.661 36.3808 71.4606 36.1125 71.202C35.832 70.9261 35.6144 70.5938 35.4743 70.2275C35.3106 69.7965 35.2313 69.3385 35.2405 68.878C35.2385 68.5012 35.3064 68.1273 35.4409 67.7748C35.5708 67.4335 35.7694 67.1219 36.0245 66.8589C36.2797 66.5959 36.5861 66.3871 36.9252 66.2451C37.313 66.0917 37.7286 66.019 38.146 66.0318ZM38.1794 67.2269C38.0363 67.2187 37.893 67.2395 37.7584 67.2882C37.6237 67.3369 37.5006 67.4124 37.3965 67.5101C37.1909 67.7364 37.0612 68.0203 37.0254 68.3227H39.2073C39.2069 68.1863 39.1895 68.0504 39.1553 67.9182C39.1208 67.7916 39.0615 67.673 38.9809 67.5689C38.894 67.4647 38.785 67.3806 38.6618 67.3225C38.5099 67.2567 38.3451 67.2253 38.1794 67.2306V67.2269Z" fill="#fff"/>
<path d="M41.7751 71.9118V66.1275H42.8179C42.8915 66.126 42.965 66.1334 43.0368 66.1496C43.0896 66.1621 43.139 66.1859 43.1815 66.2194C43.2224 66.2528 43.2543 66.2958 43.2743 66.3445C43.2956 66.407 43.313 66.4709 43.3262 66.5357L43.4227 67.0762C43.6122 66.7757 43.8563 66.5127 44.1426 66.3003C44.3968 66.1163 44.7035 66.0171 45.0183 66.0172C45.2475 66.0061 45.4738 66.0722 45.6603 66.2047L45.4339 67.4807C45.4263 67.545 45.3945 67.6041 45.3448 67.6462C45.2905 67.6799 45.2271 67.6965 45.163 67.694C45.0882 67.6915 45.0138 67.6829 44.9404 67.6683C44.8327 67.6489 44.7233 67.6402 44.6138 67.6425C44.3807 67.6478 44.1542 67.7201 43.9618 67.8507C43.7694 67.9812 43.6195 68.1644 43.5303 68.378V71.9302L41.7751 71.9118Z" fill="#fff"/>
<path d="M48.4359 64.5352C48.4375 64.6683 48.4097 64.8001 48.3542 64.9213C48.2375 65.1657 48.0321 65.3574 47.7791 65.4582C47.6489 65.5132 47.5087 65.5407 47.3672 65.5391C47.2293 65.5411 47.0926 65.5135 46.9664 65.4582C46.8439 65.4065 46.732 65.3329 46.6362 65.2413C46.5407 65.15 46.4639 65.0414 46.4098 64.9213C46.3561 64.7996 46.3283 64.6681 46.3282 64.5352C46.328 64.3987 46.3557 64.2636 46.4098 64.1381C46.4639 64.017 46.5407 63.9072 46.6362 63.8145C46.732 63.7228 46.8439 63.6493 46.9664 63.5975C47.0926 63.5423 47.2293 63.5147 47.3672 63.5166C47.5087 63.515 47.6489 63.5426 47.7791 63.5975C47.9059 63.6474 48.0218 63.721 48.1205 63.8145C48.2182 63.9069 48.2975 64.0166 48.3542 64.1381C48.41 64.2631 48.4378 64.3986 48.4359 64.5352ZM48.2355 66.1275V71.9191H46.4877V66.1275H48.2355Z" fill="#fff"/>
<path d="M53.8609 67.4954C53.815 67.5502 53.764 67.6007 53.7087 67.6462C53.646 67.6866 53.5719 67.7059 53.4972 67.7013C53.4149 67.7033 53.3337 67.6816 53.2635 67.6388L53.0297 67.5028C52.9327 67.4482 52.8308 67.4027 52.7254 67.3667C52.5853 67.3218 52.4385 67.3007 52.2913 67.3042C52.1002 67.3003 51.9109 67.3406 51.7384 67.4219C51.5886 67.5012 51.4611 67.6162 51.3673 67.7565C51.2576 67.9179 51.1807 68.0991 51.1409 68.2897C51.0897 68.524 51.0648 68.7633 51.0667 69.0031C51.0382 69.4524 51.151 69.8995 51.3896 70.2827C51.4893 70.425 51.6233 70.5403 51.7795 70.618C51.9358 70.6957 52.1091 70.7334 52.2838 70.7277C52.448 70.7354 52.612 70.7104 52.7662 70.6541C52.873 70.6101 52.9739 70.5533 53.0668 70.485C53.1521 70.4262 53.2264 70.3673 53.2969 70.3158C53.3737 70.262 53.4663 70.2349 53.5603 70.2386C53.6213 70.2361 53.6821 70.2485 53.7371 70.2748C53.7921 70.3011 53.8397 70.3405 53.8757 70.3894L54.3804 71.0072C54.2164 71.2 54.0252 71.3685 53.8126 71.5073C53.6219 71.6325 53.4163 71.7337 53.2004 71.8088C52.9975 71.8815 52.7872 71.932 52.5733 71.9595C52.3692 71.9885 52.1634 72.0032 51.9573 72.0037C51.6058 72.0034 51.2579 71.9347 50.9331 71.8014C50.6098 71.6692 50.3188 71.4698 50.0797 71.2168C49.8213 70.9461 49.6217 70.6256 49.4934 70.2754C49.3416 69.8683 49.2674 69.4369 49.2744 69.0031C49.2712 68.6055 49.3352 68.2103 49.4637 67.8337C49.5799 67.4798 49.773 67.1554 50.0295 66.8835C50.2859 66.6115 50.5995 66.3987 50.948 66.2599C51.349 66.1014 51.7779 66.0239 52.2096 66.0319C52.6222 66.0242 53.0321 66.0979 53.4156 66.2488C53.7662 66.3984 54.0838 66.6146 54.3507 66.885L53.8609 67.4954Z" fill="#fff"/>
<path d="M59.1449 71.9117C59.0178 71.918 58.8908 71.8954 58.7739 71.8455C58.6735 71.7788 58.5989 71.6803 58.5623 71.5661L58.4399 71.2498C58.2952 71.3712 58.1542 71.4778 58.0169 71.5734C57.8851 71.6652 57.7447 71.744 57.5976 71.8088C57.4492 71.8753 57.2935 71.9247 57.1337 71.9559C56.955 71.988 56.7736 72.004 56.592 72.0037C56.3407 72.0069 56.0905 71.9722 55.8498 71.9007C55.6442 71.8383 55.4544 71.733 55.2932 71.5918C55.1324 71.4556 55.0054 71.2845 54.9221 71.0917C54.8369 70.8712 54.7953 70.6365 54.7997 70.4004C54.8033 70.1807 54.8566 69.9646 54.9555 69.7679C55.0839 69.5269 55.2731 69.3229 55.5047 69.1759C55.8263 68.9713 56.1799 68.8209 56.5511 68.7309C57.0948 68.5984 57.6538 68.5378 58.2135 68.5508V68.3007C58.2362 68.0382 58.1609 67.7765 58.002 67.5653C57.9247 67.4871 57.8314 67.4263 57.7283 67.387C57.6252 67.3477 57.5148 67.3307 57.4046 67.3373C57.2327 67.3322 57.061 67.3546 56.8962 67.4035C56.7685 67.4434 56.6444 67.4938 56.5252 67.5542C56.4213 67.6094 56.3211 67.6609 56.2246 67.705C56.1144 67.7513 55.9955 67.7738 55.8758 67.7712C55.7669 67.7741 55.6596 67.7446 55.5678 67.6866C55.4845 67.6312 55.4157 67.5568 55.3674 67.4697L55.052 66.9291C55.3953 66.6254 55.7948 66.3906 56.2283 66.2378C56.672 66.0849 57.139 66.009 57.6087 66.0135C57.9358 66.008 58.261 66.0654 58.5661 66.1826C58.837 66.2878 59.0822 66.4492 59.2851 66.6559C59.4879 66.8627 59.6439 67.11 59.7424 67.3814C59.8487 67.675 59.9015 67.9851 59.8982 68.297V71.9154L59.1449 71.9117ZM57.1411 70.8564C57.3443 70.862 57.546 70.8218 57.7311 70.7387C57.9235 70.6489 58.0972 70.5242 58.2432 70.371V69.5767C57.9547 69.5728 57.6664 69.5962 57.3823 69.6466C57.1969 69.6768 57.0168 69.7338 56.848 69.8157C56.7356 69.8646 56.6401 69.9452 56.5734 70.0474C56.523 70.1319 56.4973 70.2287 56.4992 70.3269C56.4903 70.4046 56.5005 70.4833 56.5289 70.5563C56.5574 70.6293 56.6032 70.6944 56.6625 70.7461C56.8092 70.8349 56.9812 70.8736 57.1523 70.8564H57.1411Z" fill="#fff"/>
<path d="M61.197 71.9118V66.1275H62.2805C62.3773 66.125 62.4727 66.1506 62.5551 66.2011C62.6295 66.2538 62.6833 66.3305 62.7072 66.418L62.8111 66.7526C62.9223 66.6499 63.0387 66.553 63.1599 66.4621C63.2755 66.3749 63.3998 66.2997 63.531 66.2378C63.674 66.174 63.8232 66.1247 63.9763 66.0907C64.1472 66.0559 64.3213 66.0387 64.4958 66.0393C64.7877 66.0332 65.0776 66.0896 65.3455 66.2047C65.5843 66.31 65.7971 66.4656 65.9689 66.6607C66.1395 66.866 66.2658 67.1038 66.34 67.3594C66.4299 67.6437 66.4737 67.9403 66.4699 68.2382V71.9155H64.7481V68.2382C64.7639 68.0015 64.6941 67.7669 64.5514 67.5763C64.4797 67.4956 64.3902 67.4324 64.2898 67.3915C64.1894 67.3507 64.0808 67.3334 63.9726 67.341C63.785 67.3396 63.5996 67.3812 63.4308 67.4623C63.2542 67.55 63.0906 67.6613 62.9447 67.7933V71.9191L61.197 71.9118Z" fill="#fff"/>
<path d="M71.7613 71.9118C71.6341 71.9184 71.5071 71.8958 71.3902 71.8456C71.2879 71.7809 71.2127 71.6816 71.1787 71.5661L71.0563 71.2499C70.9079 71.3712 70.7668 71.4778 70.6333 71.5734C70.4998 71.6645 70.3582 71.7433 70.2102 71.8088C70.0631 71.8753 69.9087 71.9247 69.7501 71.9559C69.5701 71.988 69.3875 72.004 69.2046 72.0037C68.9534 72.0069 68.7032 71.9722 68.4625 71.9007C68.2583 71.8374 68.0699 71.7322 67.9096 71.5918C67.7476 71.4567 67.6203 71.2853 67.5385 71.0917C67.45 70.8721 67.407 70.6369 67.4124 70.4004C67.4171 70.1804 67.4717 69.9643 67.5719 69.7679C67.6977 69.5262 67.8859 69.322 68.1174 69.1759C68.44 68.9707 68.7949 68.8203 69.1675 68.731C69.7111 68.598 70.2702 68.5375 70.8299 68.5508V68.3007C70.8525 68.0382 70.7773 67.7766 70.6184 67.5653C70.5404 67.487 70.4464 67.4262 70.3427 67.3869C70.239 67.3476 70.1281 67.3307 70.0173 67.3373C69.8454 67.3325 69.6738 67.3548 69.5089 67.4035C69.3875 67.4443 69.2696 67.4947 69.1564 67.5542C69.0562 67.6094 68.956 67.6609 68.8558 67.705C68.7458 67.7519 68.6268 67.7745 68.507 67.7712C68.3982 67.7735 68.2911 67.744 68.199 67.6866C68.1157 67.6312 68.047 67.5568 67.9987 67.4697L67.6832 66.9291C68.0265 66.6254 68.426 66.3906 68.8595 66.2378C69.3046 66.0852 69.7727 66.0093 70.2436 66.0135C70.5696 66.0079 70.8935 66.0654 71.1973 66.1826C71.4698 66.2879 71.7165 66.4497 71.9209 66.657C72.1224 66.8678 72.2767 67.1184 72.3736 67.3924C72.4812 67.6859 72.5352 67.9959 72.5331 68.3081V71.9265L71.7613 71.9118ZM69.7538 70.8564C69.9581 70.8619 70.1611 70.8217 70.3475 70.7387C70.5388 70.6471 70.7122 70.5226 70.8596 70.371V69.5767C70.5698 69.5728 70.2803 69.5962 69.995 69.6466C69.8098 69.678 69.6299 69.7349 69.4607 69.8157C69.3489 69.8657 69.2537 69.946 69.1861 70.0474C69.1374 70.1326 69.1118 70.2289 69.1119 70.3269C69.1039 70.4046 69.1145 70.483 69.1429 70.5558C69.1713 70.6287 69.2166 70.6938 69.2751 70.7461C69.4219 70.8349 69.5939 70.8736 69.765 70.8564H69.7538Z" fill="#fff"/>
<path d="M80.0918 71.9117C79.9954 71.9153 79.9 71.8911 79.8173 71.8419C79.7428 71.7867 79.6882 71.7094 79.6614 71.6212L79.5278 71.1799C79.4134 71.3023 79.2893 71.4154 79.1567 71.5183C79.0288 71.618 78.8908 71.7043 78.7449 71.7757C78.5923 71.85 78.4317 71.9067 78.2662 71.9448C78.0833 71.9839 77.8967 72.0037 77.7096 72.0036C77.4152 72.0048 77.125 71.9354 76.8635 71.8014C76.5971 71.6621 76.3671 71.4632 76.1919 71.2204C75.9916 70.9379 75.8422 70.6231 75.7503 70.2901C75.6378 69.8816 75.5841 69.4595 75.5908 69.0361C75.5873 68.6286 75.6474 68.223 75.7689 67.8337C75.8789 67.4854 76.0524 67.1601 76.2809 66.8739C76.4945 66.6073 76.7642 66.3902 77.0713 66.2378C77.389 66.0844 77.7384 66.0063 78.0918 66.0098C78.353 66.0026 78.6129 66.0476 78.8562 66.1422C79.0616 66.2274 79.253 66.3426 79.4239 66.4841V63.5424H81.1717V71.9044L80.0918 71.9117ZM78.3218 70.6725C78.438 70.6744 78.5539 70.6621 78.6669 70.6357C78.7664 70.6143 78.8625 70.5796 78.9527 70.5328C79.0404 70.487 79.1225 70.4315 79.1976 70.3673C79.2788 70.2934 79.3556 70.2148 79.4276 70.1319V67.6756C79.3095 67.5411 79.1606 67.4364 78.9935 67.3703C78.8409 67.3115 78.6785 67.2815 78.5148 67.2821C78.361 67.2807 78.2089 67.3133 78.0695 67.3777C77.926 67.4455 77.8041 67.5511 77.717 67.6829C77.6053 67.8482 77.526 68.0328 77.4832 68.2271C77.4205 68.4922 77.3918 68.764 77.3979 69.0361C77.3937 69.2951 77.416 69.5539 77.4647 69.8083C77.4981 69.9858 77.5621 70.1562 77.6539 70.3121C77.723 70.4287 77.8231 70.5241 77.9433 70.5879C78.0607 70.6461 78.1906 70.6751 78.3218 70.6725Z" fill="#fff"/>
<path d="M85.0308 66.0319C85.3927 66.0273 85.7524 66.0884 86.0921 66.212C86.4025 66.3235 86.6848 66.5004 86.9196 66.7305C87.1573 66.968 87.3419 67.2524 87.4613 67.5653C87.5939 67.918 87.6593 68.292 87.6543 68.6684C87.6611 68.775 87.6611 68.8818 87.6543 68.9883C87.6468 69.0569 87.6254 69.1232 87.5912 69.1832C87.563 69.2286 87.5216 69.2645 87.4725 69.2862C87.4088 69.3055 87.3423 69.3142 87.2758 69.3119H83.9065C83.9212 69.7044 84.0794 70.0782 84.3518 70.3636C84.6059 70.5888 84.9389 70.7063 85.2794 70.6909C85.4577 70.695 85.6355 70.6714 85.8064 70.621C85.9404 70.576 86.0706 70.5206 86.196 70.4555L86.5114 70.2938C86.6058 70.247 86.7101 70.223 86.8157 70.2239C86.8767 70.2214 86.9374 70.2338 86.9925 70.2601C87.0475 70.2864 87.0951 70.3257 87.1311 70.3747L87.6357 70.9924C87.4683 71.1875 87.2719 71.3561 87.0532 71.4925C86.8525 71.6188 86.6369 71.7201 86.4112 71.7941C86.1969 71.8669 85.9756 71.9174 85.7507 71.9448C85.5422 71.9811 85.3314 72.0032 85.1199 72.011C84.7263 72.014 84.3354 71.9467 83.9659 71.8124C83.6146 71.684 83.2947 71.4835 83.027 71.2241C82.7465 70.9481 82.5289 70.6159 82.3888 70.2496C82.2251 69.8186 82.1457 69.3606 82.155 68.9001C82.1529 68.5233 82.2209 68.1493 82.3554 67.7969C82.4833 67.4588 82.679 67.1499 82.9306 66.8887C83.1872 66.6234 83.4952 66.4121 83.836 66.2672C84.2141 66.1096 84.6206 66.0296 85.0308 66.0319ZM85.0642 67.2269C84.9211 67.2187 84.7778 67.2396 84.6432 67.2883C84.5085 67.337 84.3853 67.4125 84.2813 67.5101C84.0742 67.7354 83.9443 68.0199 83.9102 68.3228H86.0921C86.0917 68.1863 86.0743 68.0504 86.0401 67.9183C86.0041 67.7922 85.945 67.6738 85.8657 67.5689C85.7788 67.4647 85.6698 67.3806 85.5466 67.3226C85.3947 67.2567 85.2299 67.2253 85.0642 67.2306V67.2269Z" fill="#fff"/>
<path d="M95.4134 65.4288C95.3645 65.5047 95.3045 65.5728 95.2353 65.6311C95.1637 65.6774 95.0794 65.7005 94.9941 65.6973C94.8961 65.6925 94.8008 65.6648 94.7158 65.6164L94.3781 65.4325C94.2393 65.3619 94.0955 65.3017 93.9476 65.2523C93.7691 65.1956 93.5823 65.1682 93.3947 65.1714C93.1098 65.1501 92.8267 65.231 92.5969 65.3994C92.5098 65.4752 92.4409 65.5693 92.3953 65.675C92.3497 65.7806 92.3286 65.895 92.3335 66.0098C92.3312 66.085 92.3442 66.1598 92.3716 66.2299C92.399 66.3 92.4403 66.364 92.493 66.418C92.6125 66.5347 92.752 66.6293 92.9049 66.6975C93.0955 66.7811 93.2913 66.8524 93.4912 66.9107C93.7139 66.9769 93.9365 67.0505 94.1666 67.1277C94.3958 67.2092 94.62 67.3037 94.8382 67.4108C95.0559 67.5155 95.2542 67.656 95.4245 67.8264C95.6027 68.0004 95.744 68.2079 95.8401 68.4368C95.9517 68.7125 96.006 69.0077 95.9997 69.3046C96.0024 69.6659 95.9344 70.0244 95.7993 70.36C95.6733 70.683 95.4783 70.9753 95.2278 71.2168C94.9646 71.4719 94.6497 71.6687 94.3039 71.7941C93.9048 71.9393 93.4821 72.0104 93.0571 72.0037C92.794 72.0035 92.5316 71.9764 92.2741 71.9228C92.012 71.8717 91.755 71.7979 91.506 71.7022C91.2635 71.6122 91.03 71.5002 90.8084 71.3675C90.601 71.2448 90.4091 71.0979 90.2369 70.9299L90.801 70.0474C90.8438 69.9793 90.904 69.9235 90.9754 69.8856C91.0491 69.8448 91.1321 69.8233 91.2166 69.8231C91.3382 69.8261 91.4566 69.863 91.5579 69.9297L91.929 70.1651C92.0887 70.258 92.2563 70.3367 92.43 70.4004C92.643 70.4758 92.8681 70.5119 93.0942 70.5071C93.3809 70.5236 93.6648 70.4432 93.8994 70.2791C94.0029 70.1881 94.0829 70.0738 94.1327 69.9458C94.1824 69.8179 94.2004 69.6799 94.1851 69.5436C94.1932 69.3754 94.1376 69.2101 94.0293 69.0803C93.9135 68.9531 93.7719 68.8516 93.6137 68.7825C93.4255 68.6982 93.2306 68.6293 93.0311 68.5765C92.8122 68.5177 92.5895 68.4515 92.3595 68.378C92.1303 68.3054 91.907 68.2157 91.6915 68.1095C91.4734 68.0039 91.2751 67.8621 91.1052 67.6903C90.9253 67.5044 90.7851 67.2842 90.6933 67.0431C90.578 66.7377 90.5238 66.413 90.5338 66.0871C90.5348 65.7799 90.5978 65.4761 90.7193 65.1935C90.847 64.8993 91.0338 64.634 91.2685 64.4139C91.5246 64.1776 91.8245 63.9928 92.1517 63.8697C92.536 63.728 92.9439 63.6594 93.3539 63.6674C93.6026 63.6659 93.8509 63.6856 94.0961 63.7263C94.3271 63.7639 94.5544 63.8217 94.7751 63.8991C94.9826 63.9734 95.1837 64.0644 95.3763 64.1712C95.5552 64.2752 95.7219 64.3986 95.8735 64.5389L95.4134 65.4288Z" fill="#fff"/>
<path d="M99.5471 66.0319C99.9608 66.027 100.372 66.0968 100.76 66.2378C101.112 66.3677 101.432 66.5694 101.699 66.8298C101.966 67.0969 102.173 67.4163 102.308 67.7675C102.457 68.1623 102.53 68.5815 102.523 69.0031C102.53 69.4294 102.457 69.8534 102.308 70.2533C102.173 70.6056 101.966 70.9263 101.699 71.1947C101.433 71.4585 101.113 71.6628 100.76 71.7941C99.9749 72.0736 99.1156 72.0736 98.33 71.7941C97.9746 71.6621 97.651 71.458 97.38 71.1947C97.1109 70.9275 96.9022 70.6066 96.7678 70.2533C96.6172 69.8536 96.543 69.4297 96.5488 69.0031C96.5426 68.5812 96.6169 68.162 96.7678 67.7675C96.9022 67.4154 97.111 67.0957 97.38 66.8298C97.6524 66.57 97.9757 66.3685 98.33 66.2378C98.7198 66.0968 99.1321 66.027 99.5471 66.0319ZM99.5471 70.7166C99.7195 70.7295 99.8923 70.6976 100.048 70.6241C100.205 70.5506 100.339 70.438 100.438 70.2974C100.625 69.8938 100.722 69.4547 100.722 69.0104C100.722 68.5661 100.625 68.127 100.438 67.7234C100.339 67.5828 100.205 67.4702 100.048 67.3967C99.8923 67.3232 99.7195 67.2913 99.5471 67.3042C99.3725 67.2905 99.1973 67.322 99.0386 67.3954C98.8799 67.4689 98.7431 67.5819 98.6417 67.7234C98.4495 68.1257 98.3498 68.5653 98.3498 69.0104C98.3498 69.4555 98.4495 69.8951 98.6417 70.2974C98.7431 70.4389 98.8799 70.5519 99.0386 70.6254C99.1973 70.6988 99.3725 70.7303 99.5471 70.7166Z" fill="#fff"/>
<path d="M103.744 71.9118V67.3116L103.373 67.2307C103.258 67.2085 103.149 67.1621 103.054 67.0946C103.015 67.0591 102.984 67.0157 102.964 66.9676C102.943 66.9194 102.934 66.8674 102.935 66.8151V66.1275H103.759V65.8002C103.753 65.4926 103.808 65.1868 103.918 64.8993C104.02 64.6398 104.177 64.4052 104.378 64.2117C104.594 64.0172 104.846 63.8672 105.121 63.7704C105.437 63.663 105.77 63.6108 106.104 63.616C106.238 63.6146 106.372 63.6232 106.505 63.6417C106.63 63.6579 106.755 63.6849 106.876 63.7226L106.842 64.5647C106.842 64.6174 106.825 64.6687 106.794 64.7118C106.766 64.7499 106.731 64.7824 106.69 64.8074C106.648 64.8321 106.601 64.8495 106.553 64.8588C106.503 64.8704 106.452 64.8765 106.401 64.8772C106.263 64.8755 106.126 64.8903 105.993 64.9214C105.879 64.9475 105.774 65.0019 105.688 65.0795C105.605 65.1647 105.543 65.2679 105.506 65.381C105.461 65.535 105.44 65.695 105.443 65.8554V66.1275H106.82V67.3116H105.499V71.9081L103.744 71.9118Z" fill="#fff"/>
<path d="M109.611 72.011C109.358 72.0166 109.106 71.9755 108.868 71.8897C108.667 71.8153 108.485 71.6986 108.334 71.5477C108.186 71.3963 108.073 71.2142 108.004 71.0145C107.927 70.7896 107.889 70.5533 107.892 70.3158V67.3225H107.395C107.311 67.3239 107.228 67.2937 107.165 67.238C107.131 67.2052 107.105 67.1656 107.088 67.1217C107.072 67.0779 107.065 67.0309 107.069 66.9842V66.3076L107.996 66.1274L108.341 64.7154C108.359 64.6333 108.407 64.5606 108.475 64.5111C108.544 64.4616 108.628 64.4388 108.713 64.4469H109.625V66.1274H111.047V67.3115H109.648V70.1908C109.643 70.309 109.679 70.4254 109.748 70.5217C109.781 70.5654 109.824 70.6003 109.874 70.6234C109.924 70.6465 109.979 70.6571 110.034 70.6541C110.088 70.6553 110.141 70.6479 110.193 70.632C110.232 70.6234 110.27 70.6085 110.304 70.5879L110.397 70.5438C110.429 70.5358 110.462 70.5358 110.494 70.5438C110.539 70.5407 110.584 70.5537 110.62 70.5805C110.66 70.6118 110.694 70.6505 110.72 70.6946L111.251 71.5146C111.021 71.6807 110.763 71.8053 110.49 71.8823C110.204 71.9663 109.908 72.0096 109.611 72.011Z" fill="#fff"/>
<path d="M111.395 66.1275H112.794C112.908 66.1257 113.019 66.155 113.117 66.2121C113.158 66.235 113.194 66.2661 113.222 66.3035C113.25 66.3408 113.27 66.3836 113.28 66.429L113.867 69.0288C113.911 69.2225 113.952 69.4137 113.989 69.6025C114.026 69.7913 114.06 69.9751 114.089 70.1541L114.256 69.6062C114.316 69.4223 114.371 69.2384 114.431 69.0288L115.173 66.4254C115.197 66.3351 115.256 66.2575 115.336 66.2084C115.426 66.1514 115.53 66.1219 115.637 66.1238H116.412C116.525 66.1211 116.635 66.1505 116.731 66.2084C116.813 66.2568 116.873 66.3345 116.898 66.4254L117.596 69.0288C117.648 69.2237 117.704 69.4149 117.756 69.6025C117.807 69.79 117.863 69.9702 117.911 70.1651C117.941 69.9812 117.978 69.7974 118.023 69.6098C118.067 69.4223 118.112 69.2421 118.16 69.0288L118.78 66.429C118.79 66.3836 118.81 66.3408 118.838 66.3035C118.866 66.2661 118.902 66.235 118.943 66.2121C119.032 66.1551 119.137 66.1256 119.244 66.1275H120.572L118.757 71.9191H117.336C117.267 71.9208 117.2 71.8973 117.147 71.8529C117.084 71.7921 117.04 71.7141 117.021 71.6286L116.186 68.742C116.149 68.6133 116.115 68.4846 116.082 68.3743C116.049 68.264 116.015 68.1206 115.989 68.0066C115.963 68.1353 115.934 68.2677 115.904 68.3964C115.874 68.5251 115.833 68.6538 115.793 68.7825L114.947 71.6581C114.928 71.7417 114.881 71.8164 114.814 71.8695C114.746 71.9225 114.662 71.9504 114.575 71.9485H113.225L111.395 66.1275Z" fill="#fff"/>
<path d="M125.273 71.9118C125.146 71.9184 125.019 71.8958 124.902 71.8456C124.8 71.7809 124.725 71.6816 124.691 71.5661L124.568 71.2499C124.42 71.3712 124.279 71.4779 124.145 71.5735C124.013 71.6645 123.873 71.7432 123.726 71.8088C123.578 71.8753 123.422 71.9247 123.262 71.9559C123.082 71.988 122.9 72.004 122.717 72.0037C122.472 72.0054 122.228 71.9707 121.993 71.9007C121.787 71.8383 121.598 71.733 121.437 71.5918C121.281 71.4547 121.161 71.2834 121.084 71.0917C120.999 70.8712 120.957 70.6365 120.962 70.4004C120.965 70.1807 121.018 69.9646 121.117 69.7679C121.244 69.5271 121.432 69.323 121.663 69.1759C121.985 68.9707 122.34 68.8203 122.713 68.731C123.257 68.5981 123.816 68.5375 124.375 68.5508V68.3007C124.398 68.0382 124.323 67.7766 124.164 67.5653C124.086 67.4871 123.992 67.4262 123.888 67.3869C123.785 67.3476 123.674 67.3307 123.563 67.3373C123.392 67.3325 123.222 67.3549 123.058 67.4035C122.93 67.4426 122.806 67.493 122.687 67.5543C122.583 67.6094 122.483 67.6609 122.383 67.705C122.273 67.752 122.154 67.7745 122.034 67.7712C121.925 67.7735 121.818 67.7441 121.726 67.6866C121.645 67.6301 121.577 67.5559 121.529 67.4697L121.21 66.9291C121.554 66.6262 121.953 66.3915 122.386 66.2378C122.831 66.0852 123.3 66.0093 123.771 66.0135C124.098 66.0083 124.423 66.0657 124.728 66.1827C124.999 66.2872 125.244 66.4484 125.446 66.6553C125.649 66.8622 125.803 67.1098 125.901 67.3814C126.01 67.6744 126.064 67.9847 126.06 68.2971V71.9154L125.273 71.9118ZM123.266 70.8564C123.47 70.862 123.673 70.8217 123.86 70.7387C124.051 70.6471 124.224 70.5226 124.372 70.371V69.5767C124.083 69.5727 123.795 69.5961 123.511 69.6466C123.324 69.6737 123.141 69.7269 122.969 69.8047C122.858 69.8537 122.763 69.9343 122.698 70.0364C122.647 70.1206 122.62 70.2174 122.62 70.3159C122.612 70.3935 122.623 70.472 122.651 70.5448C122.68 70.6177 122.725 70.6828 122.784 70.7351C122.927 70.8252 123.096 70.8677 123.266 70.8564Z" fill="#fff"/>
<path d="M127.314 71.9118V66.1275H128.35C128.423 66.126 128.497 66.1334 128.569 66.1496C128.621 66.1621 128.671 66.1859 128.713 66.2194C128.754 66.2528 128.786 66.2958 128.806 66.3445C128.827 66.407 128.845 66.4709 128.858 66.5357L128.954 67.0762C129.144 66.7757 129.388 66.5127 129.674 66.3003C129.929 66.1163 130.235 66.0171 130.55 66.0172C130.779 66.0061 131.006 66.0722 131.192 66.2047L130.966 67.4807C130.958 67.545 130.926 67.6041 130.877 67.6462C130.822 67.6799 130.759 67.6965 130.695 67.694C130.62 67.6915 130.546 67.6829 130.472 67.6683C130.363 67.6487 130.253 67.6401 130.142 67.6425C129.909 67.6485 129.684 67.7211 129.492 67.8517C129.3 67.9822 129.151 68.165 129.062 68.378V71.9302L127.314 71.9118Z" fill="#fff"/>
<path d="M134.472 66.0319C134.834 66.0273 135.194 66.0884 135.534 66.2121C135.845 66.3235 136.129 66.5004 136.365 66.7306C136.602 66.968 136.787 67.2524 136.906 67.5653C137.037 67.9185 137.103 68.2922 137.099 68.6684C137.1 68.7754 137.094 68.8822 137.081 68.9884C137.075 69.0566 137.054 69.1229 137.022 69.1833C136.993 69.2297 136.95 69.2658 136.899 69.2862C136.837 69.3055 136.771 69.3142 136.706 69.312H133.333C133.348 69.7045 133.506 70.0783 133.778 70.3636C134.034 70.5884 134.368 70.7057 134.71 70.6909C134.887 70.6953 135.063 70.6717 135.233 70.621C135.368 70.5767 135.5 70.5213 135.626 70.4556L135.942 70.2938C136.035 70.2473 136.138 70.2233 136.242 70.2239C136.303 70.2214 136.364 70.2338 136.419 70.2601C136.474 70.2864 136.522 70.3258 136.558 70.3747L137.066 70.9924C136.898 71.1867 136.701 71.3552 136.483 71.4925C136.282 71.6189 136.065 71.7201 135.838 71.7941C135.625 71.8669 135.405 71.9174 135.181 71.9448C134.972 71.9734 134.761 71.9882 134.55 71.989C134.158 71.992 133.768 71.9247 133.4 71.7904C133.048 71.662 132.726 71.4615 132.457 71.202C132.178 70.9251 131.961 70.5931 131.819 70.2276C131.655 69.7965 131.576 69.3385 131.585 68.878C131.583 68.5013 131.651 68.1273 131.786 67.7749C131.915 67.4333 132.114 67.1215 132.369 66.8585C132.624 66.5955 132.931 66.3868 133.27 66.2452C133.652 66.0937 134.061 66.0211 134.472 66.0319ZM134.506 67.227C134.363 67.2191 134.219 67.2402 134.085 67.2889C133.95 67.3376 133.827 67.4128 133.723 67.5101C133.516 67.7355 133.386 68.0199 133.352 68.3228H135.534C135.534 68.1861 135.515 68.05 135.478 67.9183C135.445 67.7911 135.385 67.6721 135.303 67.569C135.217 67.4639 135.108 67.3797 134.984 67.3226C134.834 67.2564 134.67 67.225 134.506 67.2306V67.227Z" fill="#fff"/>
<path d="M144.862 65.4288C144.816 65.5065 144.756 65.575 144.684 65.631C144.614 65.6773 144.531 65.7004 144.447 65.6972C144.347 65.693 144.251 65.6653 144.165 65.6163L143.827 65.4325C143.689 65.3612 143.545 65.3009 143.397 65.2523C143.218 65.195 143.031 65.1676 142.844 65.1714C142.559 65.1501 142.276 65.231 142.046 65.3994C141.959 65.4753 141.891 65.5696 141.846 65.6753C141.801 65.7809 141.78 65.8952 141.786 66.0098C141.782 66.1608 141.838 66.3074 141.942 66.418C142.063 66.5346 142.203 66.6292 142.358 66.6974C142.548 66.7811 142.744 66.8523 142.944 66.9107C143.163 66.9769 143.389 67.0504 143.615 67.1277C143.846 67.2091 144.071 67.3036 144.291 67.4108C144.508 67.5164 144.706 67.6568 144.877 67.8263C145.054 68.0003 145.195 68.2079 145.289 68.4368C145.403 68.7118 145.457 69.0074 145.449 69.3046C145.451 69.6655 145.384 70.0236 145.252 70.3599C145.123 70.6815 144.929 70.9733 144.68 71.2167C144.416 71.4702 144.101 71.6667 143.756 71.7941C143.356 71.9396 142.932 72.0106 142.506 72.0037C142.244 72.0037 141.983 71.9766 141.727 71.9228C141.203 71.8233 140.701 71.6355 140.242 71.3675C140.036 71.2457 139.845 71.0987 139.675 70.9299L140.239 70.0474C140.281 69.9785 140.341 69.9224 140.413 69.8856C140.487 69.8448 140.57 69.8233 140.654 69.8231C140.776 69.8266 140.894 69.8635 140.996 69.9297L141.367 70.165C141.525 70.2579 141.692 70.3367 141.864 70.4004C142.077 70.475 142.302 70.5112 142.528 70.507C142.816 70.5235 143.101 70.4431 143.337 70.279C143.44 70.1875 143.519 70.0731 143.569 69.9453C143.619 69.8175 143.637 69.6798 143.623 69.5436C143.631 69.3746 143.574 69.2088 143.463 69.0803C143.349 68.9531 143.209 68.8516 143.051 68.7824C142.863 68.6987 142.668 68.6299 142.469 68.5765C142.25 68.5177 142.027 68.4515 141.797 68.3779C141.567 68.3047 141.343 68.215 141.126 68.1095C140.909 68.0038 140.712 67.862 140.543 67.6903C140.363 67.5035 140.222 67.2837 140.127 67.0431C140.015 66.737 139.962 66.4126 139.972 66.087C139.971 65.7797 140.034 65.4755 140.157 65.1934C140.282 64.8987 140.468 64.6332 140.703 64.4139C140.96 64.1775 141.261 63.9927 141.589 63.8696C141.973 63.7283 142.379 63.6597 142.788 63.6674C143.037 63.6659 143.285 63.6855 143.53 63.7262C143.761 63.7629 143.989 63.8208 144.209 63.8991C144.417 63.9734 144.618 64.0644 144.81 64.1712C144.99 64.2761 145.158 64.3994 145.311 64.5389L144.862 65.4288Z" fill="#fff"/>
<path d="M146.05 71.0366C146.05 70.9099 146.076 70.7847 146.128 70.6688C146.175 70.5553 146.246 70.4526 146.335 70.3673C146.425 70.2801 146.531 70.2113 146.647 70.1651C146.771 70.1127 146.905 70.0864 147.04 70.0878C147.303 70.0888 147.555 70.1887 147.745 70.3673C147.884 70.5007 147.979 70.6727 148.016 70.8605C148.054 71.0483 148.033 71.2431 147.957 71.419C147.909 71.5343 147.837 71.6383 147.745 71.7242C147.656 71.8126 147.548 71.8815 147.43 71.9264C147.306 71.9758 147.174 72.0008 147.04 72C146.906 72.0008 146.772 71.9758 146.647 71.9264C146.531 71.8803 146.425 71.8117 146.336 71.7245C146.247 71.6374 146.176 71.5335 146.128 71.419C146.074 71.2986 146.048 71.1681 146.05 71.0366Z" fill="#fff"/>
<path d="M156.692 71.9117H155.208C155.063 71.9184 154.92 71.8784 154.8 71.7977C154.695 71.7275 154.617 71.6255 154.577 71.5072L154.091 70.0878H150.97L150.484 71.5072C150.434 71.629 150.348 71.7329 150.238 71.8052C150.127 71.8774 149.997 71.9146 149.864 71.9117H148.38L151.56 63.774H153.508L156.692 71.9117ZM151.415 68.8008H153.642L152.9 66.5724L152.729 66.0723C152.662 65.8811 152.599 65.6752 152.532 65.4509C152.473 65.6788 152.414 65.8884 152.347 66.0833C152.28 66.2782 152.224 66.4511 152.169 66.5834L151.415 68.8008Z" fill="#fff"/>
<path d="M157.018 71.0366C157.016 70.9103 157.04 70.785 157.09 70.6686C157.139 70.5521 157.212 70.447 157.304 70.36C157.394 70.2728 157.499 70.204 157.616 70.1577C157.74 70.1054 157.874 70.0791 158.009 70.0805C158.143 70.0791 158.276 70.1054 158.399 70.1577C158.516 70.2049 158.623 70.2735 158.714 70.36C158.804 70.4462 158.875 70.5485 158.926 70.6615C158.975 70.7779 159.001 70.9029 159.001 71.0292C159.001 71.1555 158.975 71.2805 158.926 71.3969C158.876 71.5119 158.804 71.6159 158.714 71.703C158.623 71.7901 158.516 71.8585 158.399 71.9044C158.275 71.9537 158.143 71.9787 158.009 71.9779C157.875 71.9787 157.741 71.9538 157.616 71.9044C157.499 71.8595 157.393 71.7906 157.304 71.7022C157.214 71.6153 157.142 71.5115 157.093 71.3969C157.045 71.2826 157.02 71.1603 157.018 71.0366Z" fill="#fff"/>
<path d="M64.236 17.4742C64.0322 17.8212 63.7625 18.1259 63.4419 18.3714C63.1284 18.5847 62.7531 18.6906 62.3733 18.6729C61.9343 18.6556 61.5069 18.5291 61.1302 18.3052L59.6199 17.4926C59.0015 17.1708 58.3574 16.9002 57.6941 16.6836C56.8982 16.4298 56.0661 16.3056 55.2301 16.3158C53.637 16.3158 52.4508 16.6517 51.6716 17.3234C51.2837 17.663 50.9774 18.0843 50.7752 18.5564C50.5729 19.0285 50.4798 19.5395 50.5027 20.0519C50.4917 20.3866 50.5483 20.7201 50.6694 21.0327C50.7905 21.3453 50.9736 21.6307 51.2077 21.8721C51.7422 22.3988 52.3715 22.8216 53.0631 23.1187C53.9053 23.4982 54.7733 23.8189 55.6606 24.0785C56.6501 24.3702 57.652 24.6938 58.6663 25.0492C59.6921 25.4113 60.6957 25.8324 61.6719 26.3105C62.6307 26.7829 63.5075 27.4036 64.2694 28.1491C65.0571 28.9337 65.6868 29.8597 66.1248 30.8776C66.6234 32.1086 66.8633 33.4274 66.8298 34.7534C66.8434 36.3652 66.5436 37.9646 65.9467 39.464C65.388 40.9149 64.5255 42.232 63.416 43.3287C62.2361 44.4599 60.8324 45.3364 59.2934 45.9028C57.5115 46.5497 55.6248 46.8663 53.7273 46.8368C52.5565 46.8274 51.3895 46.7043 50.243 46.4691C49.0718 46.2414 47.9232 45.9116 46.8106 45.4836C45.7271 45.0742 44.6827 44.5696 43.6899 43.9759C42.7675 43.4332 41.9152 42.7812 41.1517 42.0343L43.6639 38.096C43.8536 37.7857 44.124 37.5317 44.4468 37.3606C44.7777 37.1807 45.1493 37.087 45.5267 37.0885C46.0683 37.1006 46.5956 37.2637 47.048 37.5592C47.5601 37.8754 48.139 38.2247 48.7847 38.6072C49.4946 39.02 50.2396 39.3707 51.0111 39.6552C51.9633 39.9909 52.9692 40.1517 53.9796 40.1295C55.5233 40.1295 56.7231 39.7925 57.579 39.1183C58.435 38.4441 58.8617 37.3765 58.8592 35.9154C58.8931 35.1635 58.6416 34.4262 58.1542 33.8488C57.6383 33.2813 57.0056 32.8299 56.2988 32.525C55.4599 32.1485 54.5912 31.841 53.7013 31.6057C52.7291 31.3385 51.731 31.0431 50.7068 30.7195C49.6821 30.3932 48.6825 29.9938 47.716 29.5244C46.7494 29.0509 45.871 28.418 45.1185 27.6527C44.3125 26.8209 43.6818 25.8384 43.2631 24.7624C42.756 23.3955 42.5167 21.9453 42.5581 20.4895C42.5605 19.1176 42.8432 17.7604 43.3893 16.4997C43.9523 15.1909 44.7824 14.0116 45.8272 13.0358C46.9691 11.9769 48.3091 11.1499 49.7717 10.6014C51.4847 9.96889 53.3022 9.66079 55.13 9.69317C56.23 9.69 57.3285 9.77733 58.4139 9.95425C59.4451 10.1184 60.4588 10.3769 61.4419 10.7265C62.3698 11.0535 63.2664 11.4621 64.121 11.9473C64.9209 12.3996 65.6676 12.9386 66.3474 13.5543L64.236 17.4742Z" fill="#fff"/>
<path d="M105.18 46.4139H98.5897C97.9431 46.4389 97.3052 46.2599 96.7678 45.9028C96.3055 45.581 95.9574 45.1229 95.7733 44.5937L93.6099 38.2615H79.6762L77.5129 44.5937C77.2935 45.1396 76.9113 45.6063 76.4174 45.9315C75.9235 46.2567 75.3413 46.425 74.7484 46.4139H68.1063L82.2923 10.0977H90.9939L105.18 46.4139ZM81.6392 32.5287H91.6581L88.2851 22.6002C88.0699 21.9677 87.8151 21.2237 87.5207 20.3681C87.2238 19.515 86.9381 18.5884 86.6524 17.5918C86.3815 18.6031 86.1069 19.5444 85.8212 20.4086C85.5355 21.2727 85.2683 22.0192 85.0159 22.648L81.6392 32.5287Z" fill="#fff"/>
<path d="M128.572 17.4741C128.368 17.8212 128.099 18.1258 127.778 18.3714C127.464 18.5837 127.089 18.6895 126.709 18.6729C126.269 18.6552 125.841 18.5288 125.463 18.3052C125.021 18.0625 124.516 17.7941 123.956 17.4925C123.337 17.1721 122.693 16.9015 122.03 16.6835C121.234 16.4301 120.402 16.3059 119.566 16.3158C117.976 16.3158 116.789 16.6517 116.008 17.3234C115.62 17.663 115.314 18.0843 115.111 18.5564C114.909 19.0285 114.816 19.5395 114.839 20.0519C114.828 20.3866 114.885 20.72 115.006 21.0327C115.127 21.3453 115.31 21.6307 115.544 21.8721C116.078 22.3988 116.708 22.8216 117.399 23.1187C118.241 23.4993 119.109 23.82 119.997 24.0784C120.986 24.3702 121.988 24.6938 123.002 25.0492C124.028 25.4112 125.032 25.8324 126.008 26.3105C126.968 26.7819 127.844 27.4026 128.606 28.1491C129.394 28.9328 130.024 29.859 130.461 30.8776C130.958 32.1088 131.197 33.4276 131.162 34.7534C131.175 36.3648 130.877 37.9638 130.283 39.4639C129.724 40.9148 128.862 42.232 127.752 43.3287C126.572 44.4599 125.169 45.3364 123.63 45.9027C121.848 46.5496 119.961 46.8662 118.063 46.8368C116.894 46.8272 115.728 46.704 114.583 46.469C113.411 46.2408 112.261 45.9111 111.147 45.4835C110.065 45.0734 109.022 44.5689 108.03 43.9759C107.107 43.4323 106.253 42.7804 105.488 42.0343L108.004 38.096C108.193 37.7866 108.462 37.5328 108.783 37.3606C109.115 37.1809 109.488 37.0873 109.867 37.0884C110.408 37.1011 110.935 37.2642 111.388 37.5591C111.9 37.8754 112.479 38.2247 113.125 38.6071C113.834 39.0209 114.579 39.3716 115.351 39.6551C116.303 39.9902 117.309 40.1509 118.32 40.1295C119.863 40.1295 121.062 39.7924 121.915 39.1183C122.769 38.4441 123.197 37.3765 123.199 35.9154C123.233 35.1634 122.981 34.4262 122.494 33.8488C121.978 33.2813 121.345 32.8299 120.639 32.525C119.8 32.149 118.931 31.8416 118.041 31.6057C117.065 31.3373 116.071 31.0431 115.047 30.7195C114.02 30.3939 113.02 29.9944 112.052 29.5244C111.085 29.052 110.206 28.419 109.455 27.6527C108.649 26.8209 108.018 25.8383 107.599 24.7624C107.092 23.3955 106.853 21.9453 106.894 20.4895C106.897 19.1176 107.179 17.7604 107.725 16.4997C108.289 15.1909 109.119 14.0115 110.163 13.0357C111.305 11.9769 112.645 11.1499 114.108 10.6014C115.821 9.96861 117.638 9.6605 119.466 9.69314C120.565 9.68997 121.662 9.7773 122.746 9.95423C123.779 10.1184 124.794 10.3769 125.778 10.7264C126.706 11.0543 127.602 11.4628 128.457 11.9473C129.257 12.3996 130.004 12.9385 130.684 13.5542L128.572 17.4741Z" fill="#fff"/>
<path d="M159.004 10.0977V16.5769H143.961V25.77H156.488V32.297H143.961V46.4286H135.426V10.0977H159.004Z" fill="#fff"/>
<path d="M36.7397 33.7349C36.7397 35.3381 36.0346 36.0662 34.4428 36.0589C30.5502 36.0589 26.6503 36.0368 22.7652 36.0772C21.1325 36.0772 20.4682 35.2866 20.4757 33.7349C20.4757 30.7931 20.4757 27.8513 20.4571 24.9095C20.4126 20.0813 18.0823 17.6985 13.3251 17.625C10.5347 17.5882 7.76278 17.5882 4.96862 17.5882C3.42497 17.5882 2.64572 16.9594 2.72364 15.2789C2.82754 13.2932 2.74591 11.3001 2.75333 9.30707C2.76075 7.31402 2.7793 5.32832 2.75333 3.33527C2.72364 1.92689 3.45465 1.25028 4.76824 1.23925C8.74241 1.20615 12.7129 1.19512 16.687 1.23925C18.3494 1.25763 19.0396 2.22107 19.0099 3.88317C18.958 7.22944 18.958 10.5733 19.0099 13.9146C19.073 17.5146 20.9952 19.5702 24.576 19.7283C27.6707 19.8607 30.7692 19.8313 33.8713 19.7688C35.8306 19.7357 36.8065 20.3608 36.7434 22.5193C36.6432 26.248 36.7063 29.9951 36.7397 33.7349Z" fill="#fff"/>
<path d="M35.3964 53.6249C35.3964 55.2282 34.6876 55.9526 33.0995 55.9489C29.2069 55.9305 25.307 55.9232 21.4219 55.9489C19.7854 55.9489 19.1249 55.162 19.1324 53.6102C19.1324 50.6684 19.1324 47.7266 19.1324 44.7849C19.0878 39.953 16.7575 37.5738 11.9967 37.5003C9.21736 37.4598 6.43062 37.4635 3.65501 37.4635C2.11136 37.4635 1.3284 36.8384 1.42859 35.1579C1.52878 33.1722 1.45086 31.1791 1.45457 29.1861C1.45828 27.193 1.48425 25.2073 1.45457 23.2143C1.42859 21.8022 2.15589 21.1293 3.47319 21.1183C7.44736 21.0852 11.4178 21.0742 15.3883 21.1183C17.0544 21.1183 17.7446 22.1001 17.7149 23.7622C17.6629 27.1085 17.6629 30.4523 17.7149 33.7937C17.778 37.39 19.7001 39.4455 23.2809 39.6073C26.3757 39.736 29.4741 39.7103 32.5577 39.6478C34.5207 39.611 35.4929 40.2398 35.4335 42.3984C35.2851 46.1344 35.3481 49.8815 35.3964 53.6249Z" fill="#fff"/>
<path d="M29.86 15.9224C27.9564 15.9224 26.0491 15.8856 24.1455 15.9224C22.5611 15.9591 21.8412 15.3266 21.8672 13.6609C21.934 9.84636 21.934 6.03063 21.8672 2.21367C21.8375 0.522152 22.6093 -0.0184001 24.1826 0.0073405C28.0677 0.0477899 31.9751 0.0588216 35.8454 0.0073405C37.5226 -0.0147228 38.1126 0.838391 38.1126 2.34973C38.1126 6.08579 38.1126 9.82185 38.1126 13.5616C38.1126 15.2936 37.2258 15.9628 35.5745 15.926C33.6709 15.8856 31.7636 15.926 29.86 15.926V15.9224Z" fill="#fff"/>
<path d="M7.99655 56.1438C6.08925 56.1438 4.18566 56.1107 2.28207 56.1438C0.697595 56.1806 -0.0222817 55.5481 0.00369328 53.886C0.070486 50.069 0.070486 46.2533 0.00369328 42.4388C-0.0259924 40.7472 0.745834 40.2067 2.31546 40.2324C6.20428 40.2729 10.1079 40.2802 13.9819 40.2324C15.6592 40.2067 16.2492 41.0635 16.2492 42.5748C16.2492 46.3109 16.2492 50.0469 16.2492 53.783C16.2492 55.515 15.3586 56.1879 13.7073 56.1511C11.8037 56.107 9.90014 56.1511 7.99655 56.1511V56.1438Z" fill="#fff"/>
</g>
<defs>
<clipPath id="clip0_16_199">
<rect width="159" height="72" fill="white"/>
</clipPath>
</defs>
</svg>
